<svg width="43" height="40" viewBox="0 0 43 40" fill="none" xmlns="http://www.w3.org/2000/svg">
<path d="M29.5028 39.8186C28.7065 40.136 27.9699 40.0368 27.2931 39.521C26.6162 39.0052 26.2778 38.2911 26.2778 37.3785C26.2778 36.942 26.4076 36.5556 26.6672 36.2191C26.9252 35.8811 27.2532 35.6327 27.6514 35.474C30.8366 34.2043 33.3951 32.1808 35.3269 29.4034C37.2571 26.626 38.2222 23.4916 38.2222 20C38.2222 16.5084 37.2571 13.374 35.3269 10.5966C33.3951 7.81919 30.8366 5.79566 27.6514 4.526C27.2134 4.36729 26.875 4.1094 26.6361 3.7523C26.3972 3.39521 26.2778 2.99844 26.2778 2.562C26.2778 1.6891 26.6162 0.994757 27.2931 0.478957C27.9699 -0.0368428 28.7065 -0.136035 29.5028 0.18138C33.5639 1.80813 36.8287 4.40697 39.2972 7.97789C41.7657 11.5488 43 15.5562 43 20C43 24.4438 41.7657 28.4512 39.2972 32.0221C36.8287 35.593 33.5639 38.1919 29.5028 39.8186ZM2.38889 27.2014C1.71204 27.2014 1.14507 26.9728 0.688 26.5157C0.229334 26.0603 0 25.4953 0 24.8207V15.2983C0 14.6238 0.229334 14.058 0.688 13.6009C1.14507 13.1454 1.71204 12.9177 2.38889 12.9177H9.55556L17.4389 5.06164C18.1954 4.30778 19.0609 4.13876 20.0356 4.55457C21.0119 4.97197 21.5 5.71631 21.5 6.78759V33.3314C21.5 34.4027 21.0119 35.1463 20.0356 35.5621C19.0609 35.9795 18.1954 35.8112 17.4389 35.0574L9.55556 27.2014H2.38889ZM26.2778 29.582V10.418C28.0694 11.2512 29.5123 12.5407 30.6064 14.2865C31.7021 16.0323 32.25 17.9566 32.25 20.0595C32.25 22.1624 31.7021 24.0669 30.6064 25.773C29.5123 27.4791 28.0694 28.7488 26.2778 29.582ZM16.7222 12.5606L11.5861 17.6789H4.77778V22.4401H11.5861L16.7222 27.5585V12.5606Z" fill="#464646"/>
</svg>
