<svg width="50" height="50" viewBox="0 0 50 50" fill="none" xmlns="http://www.w3.org/2000/svg">
<rect width="50" height="50" rx="4" fill="#124778"/>
<path d="M24.792 36.224C24.2587 36.224 23.8427 36.0747 23.544 35.776C23.2667 35.4773 23.128 35.0613 23.128 34.528V16.224H16.344C15.896 16.224 15.544 16.1067 15.288 15.872C15.032 15.616 14.904 15.264 14.904 14.816C14.904 14.368 15.032 14.0267 15.288 13.792C15.544 13.5573 15.896 13.44 16.344 13.44H33.208C33.6773 13.44 34.04 13.5573 34.296 13.792C34.552 14.0267 34.68 14.368 34.68 14.816C34.68 15.264 34.552 15.616 34.296 15.872C34.04 16.1067 33.6773 16.224 33.208 16.224H26.424V34.528C26.424 35.0613 26.2853 35.4773 26.008 35.776C25.752 36.0747 25.3467 36.224 24.792 36.224Z" fill="white"/>
</svg>
